<mxfile host="app.diagrams.net" modified="2021-12-18T16:36:28.081Z" agent="5.0 (Windows NT 10.0; Win64; x64) AppleWebKit/537.36 (KHTML, like Gecko) Chrome/96.0.4664.110 Safari/537.36" etag="Z9aEt-f2ZiOXRtEwhMQi" version="16.0.0" type="github">
  <diagram id="QT5HXqcPdxw1ZhrNKC44" name="Page-1">
    <mxGraphModel dx="474" dy="251" grid="1" gridSize="10" guides="1" tooltips="1" connect="1" arrows="1" fold="1" page="1" pageScale="1" pageWidth="850" pageHeight="1100" math="0" shadow="0">
      <root>
        <mxCell id="0" />
        <mxCell id="1" parent="0" />
        <mxCell id="CAJ3K_saDDMzuhq5K5YT-2" value="&lt;b&gt;[&lt;/b&gt;&quot;I&quot;, &quot;like, &quot;COMP&quot;, &quot;550&quot;&lt;b&gt;]&lt;/b&gt;" style="text;html=1;align=center;verticalAlign=middle;resizable=0;points=[];autosize=1;strokeColor=none;fillColor=none;" vertex="1" parent="1">
          <mxGeometry x="20" y="60" width="150" height="20" as="geometry" />
        </mxCell>
        <mxCell id="CAJ3K_saDDMzuhq5K5YT-3" value="&lt;b&gt;[&lt;/b&gt;[UNK], [UNK], [UNK], [UNK]&lt;b&gt;]&lt;/b&gt;" style="text;html=1;align=center;verticalAlign=middle;resizable=0;points=[];autosize=1;strokeColor=none;fillColor=none;" vertex="1" parent="1">
          <mxGeometry x="10" y="90" width="170" height="20" as="geometry" />
        </mxCell>
        <mxCell id="CAJ3K_saDDMzuhq5K5YT-6" value="" style="endArrow=classic;html=1;rounded=0;" edge="1" parent="1">
          <mxGeometry width="50" height="50" relative="1" as="geometry">
            <mxPoint x="161" y="70.60000000000002" as="sourcePoint" />
            <mxPoint x="290" y="71" as="targetPoint" />
            <Array as="points" />
          </mxGeometry>
        </mxCell>
        <mxCell id="CAJ3K_saDDMzuhq5K5YT-9" value="" style="edgeStyle=elbowEdgeStyle;elbow=vertical;endArrow=classic;html=1;rounded=0;" edge="1" parent="1">
          <mxGeometry width="50" height="50" relative="1" as="geometry">
            <mxPoint x="180" y="70" as="sourcePoint" />
            <mxPoint x="290" y="110" as="targetPoint" />
            <Array as="points">
              <mxPoint x="180" y="110" />
            </Array>
          </mxGeometry>
        </mxCell>
        <mxCell id="CAJ3K_saDDMzuhq5K5YT-10" value="" style="edgeStyle=elbowEdgeStyle;elbow=horizontal;endArrow=classic;html=1;rounded=0;dashed=1;" edge="1" parent="1">
          <mxGeometry width="50" height="50" relative="1" as="geometry">
            <mxPoint x="172" y="101" as="sourcePoint" />
            <mxPoint x="290" y="81" as="targetPoint" />
            <Array as="points" />
          </mxGeometry>
        </mxCell>
        <mxCell id="CAJ3K_saDDMzuhq5K5YT-12" value="" style="edgeStyle=segmentEdgeStyle;endArrow=classic;html=1;rounded=0;" edge="1" parent="1">
          <mxGeometry width="50" height="50" relative="1" as="geometry">
            <mxPoint x="181" y="91" as="sourcePoint" />
            <mxPoint x="291" y="151" as="targetPoint" />
            <Array as="points">
              <mxPoint x="181" y="151" />
              <mxPoint x="291" y="151" />
            </Array>
          </mxGeometry>
        </mxCell>
        <mxCell id="CAJ3K_saDDMzuhq5K5YT-78" value="" style="shape=table;startSize=0;container=1;collapsible=0;childLayout=tableLayout;fontFamily=Helvetica;fontSize=12;fontColor=default;strokeColor=default;fillColor=#A32A2A;" vertex="1" parent="1">
          <mxGeometry x="323" y="68" width="120" height="15" as="geometry" />
        </mxCell>
        <mxCell id="CAJ3K_saDDMzuhq5K5YT-79" value="" style="shape=partialRectangle;collapsible=0;dropTarget=0;pointerEvents=0;fillColor=none;top=0;left=0;bottom=0;right=0;points=[[0,0.5],[1,0.5]];portConstraint=eastwest;fontFamily=Helvetica;fontSize=12;fontColor=default;startSize=0;strokeColor=default;" vertex="1" parent="CAJ3K_saDDMzuhq5K5YT-78">
          <mxGeometry width="120" height="15" as="geometry" />
        </mxCell>
        <mxCell id="CAJ3K_saDDMzuhq5K5YT-80" value="" style="shape=partialRectangle;html=1;whiteSpace=wrap;connectable=0;overflow=hidden;fillColor=none;top=0;left=0;bottom=0;right=0;pointerEvents=1;fontFamily=Helvetica;fontSize=12;fontColor=default;startSize=0;strokeColor=default;" vertex="1" parent="CAJ3K_saDDMzuhq5K5YT-79">
          <mxGeometry width="22" height="15" as="geometry">
            <mxRectangle width="22" height="15" as="alternateBounds" />
          </mxGeometry>
        </mxCell>
        <mxCell id="CAJ3K_saDDMzuhq5K5YT-81" value="" style="shape=partialRectangle;html=1;whiteSpace=wrap;connectable=0;overflow=hidden;fillColor=none;top=0;left=0;bottom=0;right=0;pointerEvents=1;fontFamily=Helvetica;fontSize=12;fontColor=default;startSize=0;strokeColor=default;" vertex="1" parent="CAJ3K_saDDMzuhq5K5YT-79">
          <mxGeometry x="22" width="18" height="15" as="geometry">
            <mxRectangle width="18" height="15" as="alternateBounds" />
          </mxGeometry>
        </mxCell>
        <mxCell id="CAJ3K_saDDMzuhq5K5YT-82" value="" style="shape=partialRectangle;html=1;whiteSpace=wrap;connectable=0;overflow=hidden;fillColor=none;top=0;left=0;bottom=0;right=0;pointerEvents=1;fontFamily=Helvetica;fontSize=12;fontColor=default;startSize=0;strokeColor=default;" vertex="1" parent="CAJ3K_saDDMzuhq5K5YT-79">
          <mxGeometry x="40" width="20" height="15" as="geometry">
            <mxRectangle width="20" height="15" as="alternateBounds" />
          </mxGeometry>
        </mxCell>
        <mxCell id="CAJ3K_saDDMzuhq5K5YT-83" value="" style="shape=partialRectangle;html=1;whiteSpace=wrap;connectable=0;overflow=hidden;fillColor=none;top=0;left=0;bottom=0;right=0;pointerEvents=1;fontFamily=Helvetica;fontSize=12;fontColor=default;startSize=0;strokeColor=default;" vertex="1" parent="CAJ3K_saDDMzuhq5K5YT-79">
          <mxGeometry x="60" width="22" height="15" as="geometry">
            <mxRectangle width="22" height="15" as="alternateBounds" />
          </mxGeometry>
        </mxCell>
        <mxCell id="CAJ3K_saDDMzuhq5K5YT-84" value="" style="shape=partialRectangle;html=1;whiteSpace=wrap;connectable=0;overflow=hidden;fillColor=none;top=0;left=0;bottom=0;right=0;pointerEvents=1;fontFamily=Helvetica;fontSize=12;fontColor=default;startSize=0;strokeColor=default;" vertex="1" parent="CAJ3K_saDDMzuhq5K5YT-79">
          <mxGeometry x="82" width="18" height="15" as="geometry">
            <mxRectangle width="18" height="15" as="alternateBounds" />
          </mxGeometry>
        </mxCell>
        <mxCell id="CAJ3K_saDDMzuhq5K5YT-85" value="" style="shape=partialRectangle;html=1;whiteSpace=wrap;connectable=0;overflow=hidden;fillColor=none;top=0;left=0;bottom=0;right=0;pointerEvents=1;fontFamily=Helvetica;fontSize=12;fontColor=default;startSize=0;strokeColor=default;" vertex="1" parent="CAJ3K_saDDMzuhq5K5YT-79">
          <mxGeometry x="100" width="20" height="15" as="geometry">
            <mxRectangle width="20" height="15" as="alternateBounds" />
          </mxGeometry>
        </mxCell>
        <mxCell id="CAJ3K_saDDMzuhq5K5YT-87" value="" style="edgeStyle=elbowEdgeStyle;elbow=horizontal;endArrow=classic;html=1;rounded=0;dashed=1;" edge="1" parent="1">
          <mxGeometry width="50" height="50" relative="1" as="geometry">
            <mxPoint x="231" y="84" as="sourcePoint" />
            <mxPoint x="290" y="121" as="targetPoint" />
            <Array as="points">
              <mxPoint x="231" y="121" />
            </Array>
          </mxGeometry>
        </mxCell>
        <mxCell id="CAJ3K_saDDMzuhq5K5YT-88" value="" style="edgeStyle=elbowEdgeStyle;elbow=horizontal;endArrow=classic;html=1;rounded=0;dashed=1;" edge="1" parent="1">
          <mxGeometry width="50" height="50" relative="1" as="geometry">
            <mxPoint x="231" y="101.00000000000006" as="sourcePoint" />
            <mxPoint x="290" y="161" as="targetPoint" />
            <Array as="points">
              <mxPoint x="231" y="161" />
            </Array>
          </mxGeometry>
        </mxCell>
        <mxCell id="CAJ3K_saDDMzuhq5K5YT-89" value="" style="edgeStyle=elbowEdgeStyle;elbow=horizontal;endArrow=classic;html=1;rounded=0;dashed=1;" edge="1" parent="1">
          <mxGeometry width="50" height="50" relative="1" as="geometry">
            <mxPoint x="231" y="200" as="sourcePoint" />
            <mxPoint x="290.0000000000001" y="260" as="targetPoint" />
            <Array as="points">
              <mxPoint x="231" y="260" />
            </Array>
          </mxGeometry>
        </mxCell>
        <mxCell id="CAJ3K_saDDMzuhq5K5YT-90" value="" style="edgeStyle=segmentEdgeStyle;endArrow=classic;html=1;rounded=0;" edge="1" parent="1">
          <mxGeometry width="50" height="50" relative="1" as="geometry">
            <mxPoint x="179.99999999999994" y="190" as="sourcePoint" />
            <mxPoint x="290" y="250" as="targetPoint" />
            <Array as="points">
              <mxPoint x="180" y="250" />
              <mxPoint x="290" y="250" />
            </Array>
          </mxGeometry>
        </mxCell>
        <mxCell id="CAJ3K_saDDMzuhq5K5YT-116" value="" style="shape=table;startSize=0;container=1;collapsible=0;childLayout=tableLayout;fontFamily=Helvetica;fontSize=12;fontColor=default;strokeColor=default;fillColor=#EA6B66;" vertex="1" parent="1">
          <mxGeometry x="323" y="117" width="120" height="15" as="geometry" />
        </mxCell>
        <mxCell id="CAJ3K_saDDMzuhq5K5YT-117" value="" style="shape=partialRectangle;collapsible=0;dropTarget=0;pointerEvents=0;fillColor=none;top=0;left=0;bottom=0;right=0;points=[[0,0.5],[1,0.5]];portConstraint=eastwest;fontFamily=Helvetica;fontSize=12;fontColor=default;startSize=0;strokeColor=default;" vertex="1" parent="CAJ3K_saDDMzuhq5K5YT-116">
          <mxGeometry width="120" height="15" as="geometry" />
        </mxCell>
        <mxCell id="CAJ3K_saDDMzuhq5K5YT-118" value="&lt;br&gt;" style="shape=partialRectangle;html=1;whiteSpace=wrap;connectable=0;overflow=hidden;fillColor=none;top=0;left=0;bottom=0;right=0;pointerEvents=1;fontFamily=Helvetica;fontSize=12;fontColor=default;startSize=0;strokeColor=default;" vertex="1" parent="CAJ3K_saDDMzuhq5K5YT-117">
          <mxGeometry width="22" height="15" as="geometry">
            <mxRectangle width="22" height="15" as="alternateBounds" />
          </mxGeometry>
        </mxCell>
        <mxCell id="CAJ3K_saDDMzuhq5K5YT-119" value="" style="shape=partialRectangle;html=1;whiteSpace=wrap;connectable=0;overflow=hidden;fillColor=none;top=0;left=0;bottom=0;right=0;pointerEvents=1;fontFamily=Helvetica;fontSize=12;fontColor=default;startSize=0;strokeColor=default;" vertex="1" parent="CAJ3K_saDDMzuhq5K5YT-117">
          <mxGeometry x="22" width="18" height="15" as="geometry">
            <mxRectangle width="18" height="15" as="alternateBounds" />
          </mxGeometry>
        </mxCell>
        <mxCell id="CAJ3K_saDDMzuhq5K5YT-120" value="" style="shape=partialRectangle;html=1;whiteSpace=wrap;connectable=0;overflow=hidden;fillColor=none;top=0;left=0;bottom=0;right=0;pointerEvents=1;fontFamily=Helvetica;fontSize=12;fontColor=default;startSize=0;strokeColor=default;" vertex="1" parent="CAJ3K_saDDMzuhq5K5YT-117">
          <mxGeometry x="40" width="20" height="15" as="geometry">
            <mxRectangle width="20" height="15" as="alternateBounds" />
          </mxGeometry>
        </mxCell>
        <mxCell id="CAJ3K_saDDMzuhq5K5YT-121" value="" style="shape=partialRectangle;html=1;whiteSpace=wrap;connectable=0;overflow=hidden;fillColor=none;top=0;left=0;bottom=0;right=0;pointerEvents=1;fontFamily=Helvetica;fontSize=12;fontColor=default;startSize=0;strokeColor=default;" vertex="1" parent="CAJ3K_saDDMzuhq5K5YT-117">
          <mxGeometry x="60" width="22" height="15" as="geometry">
            <mxRectangle width="22" height="15" as="alternateBounds" />
          </mxGeometry>
        </mxCell>
        <mxCell id="CAJ3K_saDDMzuhq5K5YT-122" value="" style="shape=partialRectangle;html=1;whiteSpace=wrap;connectable=0;overflow=hidden;fillColor=none;top=0;left=0;bottom=0;right=0;pointerEvents=1;fontFamily=Helvetica;fontSize=12;fontColor=default;startSize=0;strokeColor=default;" vertex="1" parent="CAJ3K_saDDMzuhq5K5YT-117">
          <mxGeometry x="82" width="18" height="15" as="geometry">
            <mxRectangle width="18" height="15" as="alternateBounds" />
          </mxGeometry>
        </mxCell>
        <mxCell id="CAJ3K_saDDMzuhq5K5YT-123" value="" style="shape=partialRectangle;html=1;whiteSpace=wrap;connectable=0;overflow=hidden;fillColor=none;top=0;left=0;bottom=0;right=0;pointerEvents=1;fontFamily=Helvetica;fontSize=12;fontColor=default;startSize=0;strokeColor=default;" vertex="1" parent="CAJ3K_saDDMzuhq5K5YT-117">
          <mxGeometry x="100" width="20" height="15" as="geometry">
            <mxRectangle width="20" height="15" as="alternateBounds" />
          </mxGeometry>
        </mxCell>
        <mxCell id="CAJ3K_saDDMzuhq5K5YT-124" value="" style="shape=table;startSize=0;container=1;collapsible=0;childLayout=tableLayout;fontFamily=Helvetica;fontSize=12;fontColor=default;strokeColor=default;fillColor=#F8CECC;" vertex="1" parent="1">
          <mxGeometry x="323" y="187" width="120" height="15" as="geometry" />
        </mxCell>
        <mxCell id="CAJ3K_saDDMzuhq5K5YT-125" value="" style="shape=partialRectangle;collapsible=0;dropTarget=0;pointerEvents=0;fillColor=none;top=0;left=0;bottom=0;right=0;points=[[0,0.5],[1,0.5]];portConstraint=eastwest;fontFamily=Helvetica;fontSize=12;fontColor=default;startSize=0;strokeColor=default;" vertex="1" parent="CAJ3K_saDDMzuhq5K5YT-124">
          <mxGeometry width="120" height="15" as="geometry" />
        </mxCell>
        <mxCell id="CAJ3K_saDDMzuhq5K5YT-126" value="" style="shape=partialRectangle;html=1;whiteSpace=wrap;connectable=0;overflow=hidden;fillColor=none;top=0;left=0;bottom=0;right=0;pointerEvents=1;fontFamily=Helvetica;fontSize=12;fontColor=default;startSize=0;strokeColor=default;" vertex="1" parent="CAJ3K_saDDMzuhq5K5YT-125">
          <mxGeometry width="22" height="15" as="geometry">
            <mxRectangle width="22" height="15" as="alternateBounds" />
          </mxGeometry>
        </mxCell>
        <mxCell id="CAJ3K_saDDMzuhq5K5YT-127" value="" style="shape=partialRectangle;html=1;whiteSpace=wrap;connectable=0;overflow=hidden;fillColor=none;top=0;left=0;bottom=0;right=0;pointerEvents=1;fontFamily=Helvetica;fontSize=12;fontColor=default;startSize=0;strokeColor=default;" vertex="1" parent="CAJ3K_saDDMzuhq5K5YT-125">
          <mxGeometry x="22" width="18" height="15" as="geometry">
            <mxRectangle width="18" height="15" as="alternateBounds" />
          </mxGeometry>
        </mxCell>
        <mxCell id="CAJ3K_saDDMzuhq5K5YT-128" value="" style="shape=partialRectangle;html=1;whiteSpace=wrap;connectable=0;overflow=hidden;fillColor=none;top=0;left=0;bottom=0;right=0;pointerEvents=1;fontFamily=Helvetica;fontSize=12;fontColor=default;startSize=0;strokeColor=default;" vertex="1" parent="CAJ3K_saDDMzuhq5K5YT-125">
          <mxGeometry x="40" width="20" height="15" as="geometry">
            <mxRectangle width="20" height="15" as="alternateBounds" />
          </mxGeometry>
        </mxCell>
        <mxCell id="CAJ3K_saDDMzuhq5K5YT-129" value="" style="shape=partialRectangle;html=1;whiteSpace=wrap;connectable=0;overflow=hidden;fillColor=none;top=0;left=0;bottom=0;right=0;pointerEvents=1;fontFamily=Helvetica;fontSize=12;fontColor=default;startSize=0;strokeColor=default;" vertex="1" parent="CAJ3K_saDDMzuhq5K5YT-125">
          <mxGeometry x="60" width="22" height="15" as="geometry">
            <mxRectangle width="22" height="15" as="alternateBounds" />
          </mxGeometry>
        </mxCell>
        <mxCell id="CAJ3K_saDDMzuhq5K5YT-130" value="" style="shape=partialRectangle;html=1;whiteSpace=wrap;connectable=0;overflow=hidden;fillColor=none;top=0;left=0;bottom=0;right=0;pointerEvents=1;fontFamily=Helvetica;fontSize=12;fontColor=default;startSize=0;strokeColor=default;" vertex="1" parent="CAJ3K_saDDMzuhq5K5YT-125">
          <mxGeometry x="82" width="18" height="15" as="geometry">
            <mxRectangle width="18" height="15" as="alternateBounds" />
          </mxGeometry>
        </mxCell>
        <mxCell id="CAJ3K_saDDMzuhq5K5YT-131" value="" style="shape=partialRectangle;html=1;whiteSpace=wrap;connectable=0;overflow=hidden;fillColor=none;top=0;left=0;bottom=0;right=0;pointerEvents=1;fontFamily=Helvetica;fontSize=12;fontColor=default;startSize=0;strokeColor=default;" vertex="1" parent="CAJ3K_saDDMzuhq5K5YT-125">
          <mxGeometry x="100" width="20" height="15" as="geometry">
            <mxRectangle width="20" height="15" as="alternateBounds" />
          </mxGeometry>
        </mxCell>
        <mxCell id="CAJ3K_saDDMzuhq5K5YT-132" value="" style="shape=table;startSize=0;container=1;collapsible=0;childLayout=tableLayout;fontFamily=Helvetica;fontSize=12;fontColor=default;strokeColor=default;fillColor=#FFFFFF;" vertex="1" parent="1">
          <mxGeometry x="323" y="248" width="120" height="15" as="geometry" />
        </mxCell>
        <mxCell id="CAJ3K_saDDMzuhq5K5YT-133" value="" style="shape=partialRectangle;collapsible=0;dropTarget=0;pointerEvents=0;fillColor=none;top=0;left=0;bottom=0;right=0;points=[[0,0.5],[1,0.5]];portConstraint=eastwest;fontFamily=Helvetica;fontSize=12;fontColor=default;startSize=0;strokeColor=default;" vertex="1" parent="CAJ3K_saDDMzuhq5K5YT-132">
          <mxGeometry width="120" height="15" as="geometry" />
        </mxCell>
        <mxCell id="CAJ3K_saDDMzuhq5K5YT-134" value="" style="shape=partialRectangle;html=1;whiteSpace=wrap;connectable=0;overflow=hidden;fillColor=none;top=0;left=0;bottom=0;right=0;pointerEvents=1;fontFamily=Helvetica;fontSize=12;fontColor=default;startSize=0;strokeColor=default;" vertex="1" parent="CAJ3K_saDDMzuhq5K5YT-133">
          <mxGeometry width="22" height="15" as="geometry">
            <mxRectangle width="22" height="15" as="alternateBounds" />
          </mxGeometry>
        </mxCell>
        <mxCell id="CAJ3K_saDDMzuhq5K5YT-135" value="" style="shape=partialRectangle;html=1;whiteSpace=wrap;connectable=0;overflow=hidden;fillColor=none;top=0;left=0;bottom=0;right=0;pointerEvents=1;fontFamily=Helvetica;fontSize=12;fontColor=default;startSize=0;strokeColor=default;" vertex="1" parent="CAJ3K_saDDMzuhq5K5YT-133">
          <mxGeometry x="22" width="18" height="15" as="geometry">
            <mxRectangle width="18" height="15" as="alternateBounds" />
          </mxGeometry>
        </mxCell>
        <mxCell id="CAJ3K_saDDMzuhq5K5YT-136" value="" style="shape=partialRectangle;html=1;whiteSpace=wrap;connectable=0;overflow=hidden;fillColor=none;top=0;left=0;bottom=0;right=0;pointerEvents=1;fontFamily=Helvetica;fontSize=12;fontColor=default;startSize=0;strokeColor=default;" vertex="1" parent="CAJ3K_saDDMzuhq5K5YT-133">
          <mxGeometry x="40" width="20" height="15" as="geometry">
            <mxRectangle width="20" height="15" as="alternateBounds" />
          </mxGeometry>
        </mxCell>
        <mxCell id="CAJ3K_saDDMzuhq5K5YT-137" value="" style="shape=partialRectangle;html=1;whiteSpace=wrap;connectable=0;overflow=hidden;fillColor=none;top=0;left=0;bottom=0;right=0;pointerEvents=1;fontFamily=Helvetica;fontSize=12;fontColor=default;startSize=0;strokeColor=default;" vertex="1" parent="CAJ3K_saDDMzuhq5K5YT-133">
          <mxGeometry x="60" width="22" height="15" as="geometry">
            <mxRectangle width="22" height="15" as="alternateBounds" />
          </mxGeometry>
        </mxCell>
        <mxCell id="CAJ3K_saDDMzuhq5K5YT-138" value="" style="shape=partialRectangle;html=1;whiteSpace=wrap;connectable=0;overflow=hidden;fillColor=none;top=0;left=0;bottom=0;right=0;pointerEvents=1;fontFamily=Helvetica;fontSize=12;fontColor=default;startSize=0;strokeColor=default;" vertex="1" parent="CAJ3K_saDDMzuhq5K5YT-133">
          <mxGeometry x="82" width="18" height="15" as="geometry">
            <mxRectangle width="18" height="15" as="alternateBounds" />
          </mxGeometry>
        </mxCell>
        <mxCell id="CAJ3K_saDDMzuhq5K5YT-139" value="" style="shape=partialRectangle;html=1;whiteSpace=wrap;connectable=0;overflow=hidden;fillColor=none;top=0;left=0;bottom=0;right=0;pointerEvents=1;fontFamily=Helvetica;fontSize=12;fontColor=default;startSize=0;strokeColor=default;" vertex="1" parent="CAJ3K_saDDMzuhq5K5YT-133">
          <mxGeometry x="100" width="20" height="15" as="geometry">
            <mxRectangle width="20" height="15" as="alternateBounds" />
          </mxGeometry>
        </mxCell>
      </root>
    </mxGraphModel>
  </diagram>
</mxfile>
